<svg xmlns="http://www.w3.org/2000/svg" viewBox="0 0 880 220" width="880" height="220" role="img" aria-label="sigil chat">
  <title>sigil chat</title>
  <defs>
    <filter id="grain-sigil-chat" x="0" y="0" width="100%" height="100%">
      <feTurbulence type="fractalNoise" baseFrequency="0.85" numOctaves="4" stitchTiles="stitch" result="noise"/>
      <feColorMatrix in="noise" type="matrix" values="0 0 0 0 1  0 0 0 0 1  0 0 0 0 1  0 0 0 0.025 0"/>
    </filter>
    <filter id="glow-sigil-chat" x="-20%" y="-200%" width="140%" height="500%">
      <feGaussianBlur stdDeviation="2.2" result="blur"/>
      <feMerge>
        <feMergeNode in="blur"/>
        <feMergeNode in="SourceGraphic"/>
      </feMerge>
    </filter>
  </defs>
  <rect x="0" y="0" width="880" height="220" fill="#0f0b0d"/>
  <rect x="0" y="0" width="880" height="220" filter="url(#grain-sigil-chat)"/>
  <path d="M310.688 133.168L310.688 133.168Q304.48 133.168 300.768 130.224Q297.056 127.28 296.48 122.352L296.48 122.352L303.008 122.352Q303.456 124.656 305.376 126.32Q307.296 127.984 310.688 127.984L310.688 127.984Q313.824 127.984 315.328 126.64Q316.832 125.296 316.832 123.44L316.832 123.44Q316.832 120.816 314.88 119.888Q312.928 118.96 309.344 118.256L309.344 118.256Q306.4 117.68 303.744 116.688Q301.088 115.696 299.424 113.872Q297.76 112.048 297.76 109.04L297.76 109.04Q297.76 104.88 300.992 102.128Q304.224 99.376 309.856 99.376L309.856 99.376Q315.232 99.376 318.496 101.936Q321.76 104.496 322.336 109.168L322.336 109.168L316.128 109.168Q315.808 107.056 314.176 105.84Q312.544 104.624 309.792 104.624L309.792 104.624Q307.04 104.624 305.568 105.712Q304.096 106.8 304.096 108.592L304.096 108.592Q304.096 110.384 305.984 111.472Q307.872 112.56 311.392 113.264L311.392 113.264Q314.784 113.904 317.472 114.864Q320.16 115.824 321.76 117.68Q323.36 119.536 323.36 122.992L323.36 122.992Q323.36 127.536 319.936 130.352Q316.512 133.168 310.688 133.168 M337.184 94.064L337.184 94.064Q335.328 94.064 334.144 92.88Q332.96 91.696 332.96 89.968L332.96 89.968Q332.96 88.24 334.144 87.12Q335.328 86 337.184 86L337.184 86Q338.976 86 340.192 87.12Q341.408 88.24 341.408 89.968L341.408 89.968Q341.408 91.696 340.192 92.88Q338.976 94.064 337.184 94.064M340.32 132.4L333.92 132.4L333.92 100.144L340.32 100.144L340.32 132.4 M365.152 122.48L365.152 122.48Q362.656 122.48 360.48 121.84L360.48 121.84L357.536 124.656Q358.24 125.104 359.296 125.456Q360.352 125.808 362.24 126.096Q364.128 126.384 367.392 126.64L367.392 126.64Q373.92 127.152 376.704 129.616Q379.488 132.08 379.488 136.304L379.488 136.304Q379.488 139.056 377.984 141.584Q376.48 144.112 373.312 145.68Q370.144 147.248 365.152 147.248L365.152 147.248Q358.432 147.248 354.336 144.688Q350.24 142.128 350.24 137.072L350.24 137.072Q350.24 135.088 351.232 133.072Q352.224 131.056 354.656 129.328L354.656 129.328Q353.248 128.752 352.288 128.048Q351.328 127.344 350.56 126.64L350.56 126.64L350.56 125.168L356.128 119.472Q352.352 116.272 352.352 110.96L352.352 110.96Q352.352 107.76 353.856 105.136Q355.36 102.512 358.24 100.944Q361.12 99.376 365.152 99.376L365.152 99.376Q367.84 99.376 370.144 100.144L370.144 100.144L382.112 100.144L382.112 104.56L376.224 104.88Q377.888 107.568 377.888 110.96L377.888 110.96Q377.888 114.16 376.384 116.784Q374.88 119.408 372.032 120.944Q369.184 122.48 365.152 122.48M365.152 117.36L365.152 117.36Q368.288 117.36 370.144 115.728Q372 114.096 372 110.96L372 110.96Q372 107.824 370.144 106.192Q368.288 104.56 365.152 104.56L365.152 104.56Q362.016 104.56 360.096 106.192Q358.176 107.824 358.176 110.96L358.176 110.96Q358.176 114.096 360.096 115.728Q362.016 117.36 365.152 117.36M356.256 136.432L356.256 136.432Q356.256 139.312 358.784 140.752Q361.312 142.192 365.152 142.192L365.152 142.192Q368.864 142.192 371.136 140.656Q373.408 139.12 373.408 136.496L373.408 136.496Q373.408 134.448 371.872 133.072Q370.336 131.696 365.984 131.44L365.984 131.44Q362.848 131.248 360.352 130.8L360.352 130.8Q357.984 132.08 357.12 133.552Q356.256 135.024 356.256 136.432 M394.784 94.064L394.784 94.064Q392.928 94.064 391.744 92.88Q390.56 91.696 390.56 89.968L390.56 89.968Q390.56 88.24 391.744 87.12Q392.928 86 394.784 86L394.784 86Q396.576 86 397.792 87.12Q399.008 88.24 399.008 89.968L399.008 89.968Q399.008 91.696 397.792 92.88Q396.576 94.064 394.784 94.064M397.92 132.4L391.52 132.4L391.52 100.144L397.92 100.144L397.92 132.4 M416.032 132.4L409.632 132.4L409.632 86.32L416.032 86.32L416.032 132.4  M461.216 133.168L461.216 133.168Q456.544 133.168 452.896 131.056Q449.248 128.944 447.168 125.136Q445.088 121.328 445.088 116.336L445.088 116.336Q445.088 111.28 447.168 107.472Q449.248 103.664 452.896 101.52Q456.544 99.376 461.216 99.376L461.216 99.376Q467.04 99.376 471.008 102.448Q474.976 105.52 476.128 110.768L476.128 110.768L469.472 110.768Q468.768 108.016 466.496 106.448Q464.224 104.88 461.152 104.88L461.152 104.88Q458.592 104.88 456.416 106.192Q454.24 107.504 452.928 110.032Q451.616 112.56 451.616 116.272L451.616 116.272Q451.616 119.984 452.928 122.544Q454.24 125.104 456.416 126.416Q458.592 127.728 461.152 127.728L461.152 127.728Q464.224 127.728 466.496 126.192Q468.768 124.656 469.472 121.84L469.472 121.84L476.128 121.84Q475.04 126.896 471.04 130.032Q467.04 133.168 461.216 133.168 M492.576 132.4L486.176 132.4L486.176 86.32L492.576 86.32L492.576 105.392Q494.176 102.64 497.024 101.008Q499.872 99.376 503.328 99.376L503.328 99.376Q509.088 99.376 512.352 102.896Q515.616 106.416 515.616 113.392L515.616 113.392L515.616 132.4L509.28 132.4L509.28 114.096Q509.28 104.88 501.664 104.88L501.664 104.88Q497.824 104.88 495.2 107.6Q492.576 110.32 492.576 115.312L492.576 115.312L492.576 132.4 M537.056 133.168L537.056 133.168Q533.024 133.168 530.432 131.792Q527.84 130.416 526.56 128.176Q525.28 125.936 525.28 123.312L525.28 123.312Q525.28 118.576 528.928 115.856Q532.576 113.136 539.104 113.136L539.104 113.136L547.424 113.136Q547.424 104.752 540 104.752L540 104.752Q537.184 104.752 535.104 106.128Q533.024 107.504 532.512 110.192L532.512 110.192L526.112 110.192Q526.496 106.8 528.448 104.4Q530.4 102 533.44 100.688Q536.48 99.376 540 99.376L540 99.376Q546.72 99.376 550.272 102.896Q553.824 106.416 553.824 112.432L553.824 112.432L553.824 132.4L548.256 132.4L547.744 126.96Q546.336 129.584 543.776 131.376Q541.216 133.168 537.056 133.168M538.272 127.984L538.272 127.984Q541.024 127.984 543.04 126.544Q545.056 125.104 546.144 122.8Q547.232 120.496 547.296 117.872L547.296 117.872L547.296 117.68L539.68 117.68Q535.52 117.68 533.76 119.152Q532 120.624 532 122.864L532 122.864Q532 125.232 533.664 126.608Q535.328 127.984 538.272 127.984 M583.136 132.4L577.888 132.4Q573.28 132.4 570.592 130.16Q567.904 127.92 567.904 122.16L567.904 122.16L567.904 105.584L562.336 105.584L562.336 100.144L567.904 100.144L568.672 92.08L574.304 92.08L574.304 100.144L583.456 100.144L583.456 105.584L574.304 105.584L574.304 122.224Q574.304 124.976 575.424 125.968Q576.544 126.96 579.424 126.96L579.424 126.96L583.136 126.96L583.136 132.4" fill="#e8ddd2"/>
  <rect x="334.78" y="160.18" width="210.45" height="2" rx="1" fill="#c67a4b" filter="url(#glow-sigil-chat)"/>
</svg>
